<?xml version="1.0" standalone="no"?>
<!DOCTYPE svg PUBLIC "-//W3C//DTD SVG 20010904//EN"
 "http://www.w3.org/TR/2001/REC-SVG-20010904/DTD/svg10.dtd">
<svg version="1.0" xmlns="http://www.w3.org/2000/svg"
 width="260.000000pt" height="260.000000pt" viewBox="0 0 260.000000 260.000000"
 preserveAspectRatio="xMidYMid meet">
<metadata>
Created by potrace 1.11, written by Peter Selinger 2001-2013
</metadata>
<g transform="translate(0.000000,260.000000) scale(0.100000,-0.100000)"
fill="#000000" stroke="none">
<path d="M1095 2534 c-432 -75 -794 -366 -956 -769 -17 -43 -32 -85 -35 -94
-2 -9 -13 -52 -24 -96 -28 -109 -36 -373 -14 -493 70 -392 321 -731 670 -906
348 -175 763 -181 1109 -15 371 178 646 546 702 939 16 108 8 396 -12 452 -2
7 -6 24 -9 38 -20 112 -109 311 -193 429 -94 131 -257 282 -383 355 -133 77
-291 135 -430 159 -107 19 -320 19 -425 1z m470 -143 c455 -120 756 -445 850
-916 11 -54 13 -249 4 -313 -14 -101 -18 -118 -45 -204 -131 -414 -515 -730
-939 -774 -171 -17 -377 6 -500 56 -11 4 -50 20 -87 35 -149 60 -343 216 -447
358 -84 114 -156 271 -186 401 -24 106 -26 119 -29 231 -8 315 105 603 322
822 168 168 403 289 627 322 105 15 340 5 430 -18z"/>
<path d="M863 2058 c-25 -40 -68 -106 -94 -147 -31 -49 -45 -80 -41 -91 12
-31 177 -290 185 -290 4 0 33 39 63 88 31 48 74 114 95 147 l39 59 -27 46
c-14 25 -41 68 -58 95 -18 28 -49 76 -69 108 -19 31 -38 57 -41 57 -3 0 -26
-33 -52 -72z m92 -160 c21 -34 38 -66 38 -72 0 -14 -73 -126 -82 -126 -8 1
-81 118 -81 131 0 10 78 129 84 129 2 0 20 -28 41 -62z"/>
<path d="M1050 1483 c-146 -252 -270 -467 -276 -478 -6 -11 -35 -60 -64 -110
-90 -154 -102 -177 -95 -183 9 -9 1416 -9 1421 0 2 3 -62 120 -142 260 -80
139 -158 273 -172 298 -29 51 -309 538 -356 618 -16 28 -35 52 -41 52 -6 0
-130 -206 -275 -457z m353 106 l68 -121 -120 -196 c-65 -108 -123 -198 -128
-199 -5 -2 -39 49 -76 112 l-68 116 117 205 c65 112 123 204 129 204 5 0 41
-55 78 -121z m235 -412 c51 -89 117 -203 146 -254 30 -51 51 -94 48 -97 -3 -4
-140 -6 -305 -6 -280 0 -299 1 -295 18 3 9 69 122 146 251 78 128 142 237 142
242 0 5 6 9 13 9 6 0 54 -73 105 -163z m-555 -122 l68 -116 -23 -37 c-13 -20
-28 -46 -33 -57 -10 -18 -22 -20 -148 -23 -75 -1 -137 1 -137 6 0 4 24 48 53
97 29 50 73 125 97 168 24 42 47 77 50 77 3 0 36 -52 73 -115z"/>
</g>
</svg>
